<mxfile host="app.diagrams.net" modified="2024-03-15T04:32:22.833Z" agent="Mozilla/5.0 (Windows NT 10.0; Win64; x64) AppleWebKit/537.36 (KHTML, like Gecko) Chrome/122.0.0.0 Safari/537.36" etag="S5c6gJnvAKcz22yJxx7s" version="24.0.6" type="google">
  <diagram name="Halaman-1" id="N61s-ZouU6qrpdA7DKbY">
    <mxGraphModel grid="1" page="1" gridSize="10" guides="1" tooltips="1" connect="1" arrows="1" fold="1" pageScale="1" pageWidth="827" pageHeight="1169" math="0" shadow="0">
      <root>
        <mxCell id="0" />
        <mxCell id="1" parent="0" />
        <mxCell id="cQgHHxZMhIMTc_SFzwmG-2" value="user" style="rounded=0;whiteSpace=wrap;html=1;" vertex="1" parent="1">
          <mxGeometry x="140" y="180" width="120" height="60" as="geometry" />
        </mxCell>
        <mxCell id="cQgHHxZMhIMTc_SFzwmG-3" value="id_user&lt;div&gt;nim&lt;/div&gt;&lt;div&gt;nama&lt;/div&gt;&lt;div&gt;&lt;div&gt;password&lt;/div&gt;&lt;/div&gt;&lt;div&gt;role&lt;/div&gt;" style="text;html=1;align=center;verticalAlign=middle;resizable=0;points=[];autosize=1;strokeColor=none;fillColor=none;" vertex="1" parent="1">
          <mxGeometry x="140" y="240" width="70" height="90" as="geometry" />
        </mxCell>
        <mxCell id="cQgHHxZMhIMTc_SFzwmG-5" value="input" style="rhombus;whiteSpace=wrap;html=1;" vertex="1" parent="1">
          <mxGeometry x="350" y="170" width="110" height="80" as="geometry" />
        </mxCell>
        <mxCell id="cQgHHxZMhIMTc_SFzwmG-6" value="jadwal" style="rounded=0;whiteSpace=wrap;html=1;" vertex="1" parent="1">
          <mxGeometry x="540" y="180" width="120" height="60" as="geometry" />
        </mxCell>
        <mxCell id="cQgHHxZMhIMTc_SFzwmG-7" value="" style="endArrow=none;html=1;rounded=0;exitX=1;exitY=0.5;exitDx=0;exitDy=0;entryX=0;entryY=0.5;entryDx=0;entryDy=0;" edge="1" parent="1" source="cQgHHxZMhIMTc_SFzwmG-2" target="cQgHHxZMhIMTc_SFzwmG-5">
          <mxGeometry width="50" height="50" relative="1" as="geometry">
            <mxPoint x="390" y="270" as="sourcePoint" />
            <mxPoint x="440" y="220" as="targetPoint" />
          </mxGeometry>
        </mxCell>
        <mxCell id="cQgHHxZMhIMTc_SFzwmG-8" value="" style="endArrow=none;html=1;rounded=0;entryX=0;entryY=0.5;entryDx=0;entryDy=0;exitX=1;exitY=0.5;exitDx=0;exitDy=0;" edge="1" parent="1" source="cQgHHxZMhIMTc_SFzwmG-5" target="cQgHHxZMhIMTc_SFzwmG-6">
          <mxGeometry width="50" height="50" relative="1" as="geometry">
            <mxPoint x="414" y="310" as="sourcePoint" />
            <mxPoint x="464" y="260" as="targetPoint" />
          </mxGeometry>
        </mxCell>
        <mxCell id="cQgHHxZMhIMTc_SFzwmG-9" value="&lt;div&gt;kd_jadwal&lt;/div&gt;&lt;div&gt;kd_matkul&lt;br&gt;&lt;div&gt;waktu&lt;/div&gt;&lt;div&gt;ruang&lt;/div&gt;&lt;div&gt;hari&lt;/div&gt;&lt;/div&gt;" style="text;html=1;align=center;verticalAlign=middle;resizable=0;points=[];autosize=1;strokeColor=none;fillColor=none;" vertex="1" parent="1">
          <mxGeometry x="520" y="100" width="80" height="90" as="geometry" />
        </mxCell>
        <mxCell id="cQgHHxZMhIMTc_SFzwmG-11" value="1" style="text;html=1;align=center;verticalAlign=middle;resizable=0;points=[];autosize=1;strokeColor=none;fillColor=none;" vertex="1" parent="1">
          <mxGeometry x="260" y="180" width="30" height="30" as="geometry" />
        </mxCell>
        <mxCell id="cQgHHxZMhIMTc_SFzwmG-12" value="M" style="text;html=1;align=center;verticalAlign=middle;resizable=0;points=[];autosize=1;strokeColor=none;fillColor=none;" vertex="1" parent="1">
          <mxGeometry x="500" y="180" width="30" height="30" as="geometry" />
        </mxCell>
        <mxCell id="cQgHHxZMhIMTc_SFzwmG-20" value="Mata Kuliah" style="rounded=0;whiteSpace=wrap;html=1;" vertex="1" parent="1">
          <mxGeometry x="330" y="383" width="120" height="60" as="geometry" />
        </mxCell>
        <mxCell id="cQgHHxZMhIMTc_SFzwmG-22" value="tambah" style="rhombus;whiteSpace=wrap;html=1;" vertex="1" parent="1">
          <mxGeometry x="545" y="373" width="110" height="80" as="geometry" />
        </mxCell>
        <mxCell id="cQgHHxZMhIMTc_SFzwmG-23" value="" style="endArrow=none;html=1;rounded=0;exitX=1;exitY=0.5;exitDx=0;exitDy=0;entryX=0;entryY=0.5;entryDx=0;entryDy=0;" edge="1" parent="1" source="cQgHHxZMhIMTc_SFzwmG-20" target="cQgHHxZMhIMTc_SFzwmG-22">
          <mxGeometry width="50" height="50" relative="1" as="geometry">
            <mxPoint x="585" y="410" as="sourcePoint" />
            <mxPoint x="635" y="360" as="targetPoint" />
          </mxGeometry>
        </mxCell>
        <mxCell id="cQgHHxZMhIMTc_SFzwmG-24" value="1" style="text;html=1;align=center;verticalAlign=middle;resizable=0;points=[];autosize=1;strokeColor=none;fillColor=none;" vertex="1" parent="1">
          <mxGeometry x="450" y="383" width="30" height="30" as="geometry" />
        </mxCell>
        <mxCell id="cQgHHxZMhIMTc_SFzwmG-25" value="" style="endArrow=none;html=1;rounded=0;entryX=0.5;entryY=0;entryDx=0;entryDy=0;exitX=0.5;exitY=1;exitDx=0;exitDy=0;" edge="1" parent="1" source="cQgHHxZMhIMTc_SFzwmG-6" target="cQgHHxZMhIMTc_SFzwmG-22">
          <mxGeometry width="50" height="50" relative="1" as="geometry">
            <mxPoint x="440" y="290" as="sourcePoint" />
            <mxPoint x="490" y="240" as="targetPoint" />
          </mxGeometry>
        </mxCell>
        <mxCell id="cQgHHxZMhIMTc_SFzwmG-26" value="&lt;div&gt;kd_matkul&lt;/div&gt;&lt;div&gt;nm_matkul&lt;/div&gt;&lt;div&gt;sks&lt;/div&gt;&lt;div&gt;Kelompok&lt;/div&gt;&lt;div&gt;Dosen&lt;/div&gt;&lt;div&gt;&lt;br&gt;&lt;/div&gt;" style="text;html=1;align=center;verticalAlign=middle;resizable=0;points=[];autosize=1;strokeColor=none;fillColor=none;" vertex="1" parent="1">
          <mxGeometry x="320" y="448" width="80" height="100" as="geometry" />
        </mxCell>
        <mxCell id="cQgHHxZMhIMTc_SFzwmG-27" value="M" style="text;html=1;align=center;verticalAlign=middle;resizable=0;points=[];autosize=1;strokeColor=none;fillColor=none;" vertex="1" parent="1">
          <mxGeometry x="570" y="240" width="30" height="30" as="geometry" />
        </mxCell>
        <mxCell id="cQgHHxZMhIMTc_SFzwmG-28" value="role" style="text;html=1;align=center;verticalAlign=middle;resizable=0;points=[];autosize=1;strokeColor=none;fillColor=none;" vertex="1" parent="1">
          <mxGeometry x="385" y="260" width="40" height="30" as="geometry" />
        </mxCell>
        <mxCell id="cQgHHxZMhIMTc_SFzwmG-29" value="kd_matkul" style="text;html=1;align=center;verticalAlign=middle;resizable=0;points=[];autosize=1;strokeColor=none;fillColor=none;" vertex="1" parent="1">
          <mxGeometry x="560" y="470" width="80" height="30" as="geometry" />
        </mxCell>
      </root>
    </mxGraphModel>
  </diagram>
</mxfile>
